HIERARCHY
ROOT joint_Root
{
	OFFSET 0.0 0.0 0.0
	CHANNELS 6 Xposition Yposition Zposition Zrotation Xrotation Yrotation 
	JOINT Hips
	{
		OFFSET 4.5925 91.4895 -427.239
		CHANNELS 6 Xposition Yposition Zposition Zrotation Xrotation Yrotation 
		JOINT Spine
		{
			OFFSET 15.7357 0.0 0.0
			CHANNELS 6 Xposition Yposition Zposition Zrotation Xrotation Yrotation 
			JOINT Chest
			{
				OFFSET 8.98455 -0.406207 0.0
				CHANNELS 6 Xposition Yposition Zposition Zrotation Xrotation Yrotation 
				JOINT Neck
				{
					OFFSET 16.3773 0.0 0.0
					CHANNELS 6 Xposition Yposition Zposition Zrotation Xrotation Yrotation 
					JOINT Head
					{
						OFFSET 6.45672 0.0 0.0
						CHANNELS 6 Xposition Yposition Zposition Zrotation Xrotation Yrotation 
						End Site
						{
							OFFSET 0.0 0.0 0.0
						}
					}
				}
				JOINT Shoulder_L
				{
					OFFSET 12.9942 -0.242716 4.98039
					CHANNELS 6 Xposition Yposition Zposition Zrotation Xrotation Yrotation 
					JOINT UpperArm_L
					{
						OFFSET 5.34809 0.0 0.0
						CHANNELS 6 Xposition Yposition Zposition Zrotation Xrotation Yrotation 
						JOINT LowerArm_L
						{
							OFFSET 24.3286 1.87007e-05 0.0
							CHANNELS 6 Xposition Yposition Zposition Zrotation Xrotation Yrotation 
							JOINT Hand_L
							{
								OFFSET 22.2916 0.0 0.0
								CHANNELS 6 Xposition Yposition Zposition Zrotation Xrotation Yrotation 
								End Site
								{
									OFFSET 0.0 0.0 0.0
								}
							}
						}
					}
				}
				JOINT Shoulder_R
				{
					OFFSET 12.9945 -0.242716 -4.98039
					CHANNELS 6 Xposition Yposition Zposition Zrotation Xrotation Yrotation 
					JOINT UpperArm_R
					{
						OFFSET -5.34813 0.0 0.0
						CHANNELS 6 Xposition Yposition Zposition Zrotation Xrotation Yrotation 
						JOINT LowerArm_R
						{
							OFFSET -24.3289 0.000322201 0.0
							CHANNELS 6 Xposition Yposition Zposition Zrotation Xrotation Yrotation 
							JOINT Hand_R
							{
								OFFSET -22.2915 -0.000108084 0.0
								CHANNELS 6 Xposition Yposition Zposition Zrotation Xrotation Yrotation 
								End Site
								{
									OFFSET 0.0 0.0 0.0
								}
							}
						}
					}
				}
			}
		}
		JOINT UpperLeg_L
		{
			OFFSET -2.19248 -6.46944 0.0
			CHANNELS 6 Xposition Yposition Zposition Zrotation Xrotation Yrotation 
			JOINT LowerLeg_L
			{
				OFFSET 39.0811 0.0 -1.23785e-05
				CHANNELS 6 Xposition Yposition Zposition Zrotation Xrotation Yrotation 
				JOINT Foot_L
				{
					OFFSET 40.9854 0.0 -1.26872e-05
					CHANNELS 6 Xposition Yposition Zposition Zrotation Xrotation Yrotation 
					JOINT Toes_L
					{
						OFFSET 11.7543 0.0 0.0
						CHANNELS 6 Xposition Yposition Zposition Zrotation Xrotation Yrotation 
						End Site
						{
							OFFSET 0.0 0.0 0.0
						}
					}
				}
			}
		}
		JOINT UpperLeg_R
		{
			OFFSET -2.19251 6.46944 0.0
			CHANNELS 6 Xposition Yposition Zposition Zrotation Xrotation Yrotation 
			JOINT LowerLeg_R
			{
				OFFSET -39.0811 -0.00228153 -0.0401928
				CHANNELS 6 Xposition Yposition Zposition Zrotation Xrotation Yrotation 
				JOINT Foot_R
				{
					OFFSET -40.9854 0.0 0.0
					CHANNELS 6 Xposition Yposition Zposition Zrotation Xrotation Yrotation 
					JOINT Toes_R
					{
						OFFSET -11.7543 0.0 0.0
						CHANNELS 6 Xposition Yposition Zposition Zrotation Xrotation Yrotation 
						End Site
						{
							OFFSET 0.0 0.0 0.0
						}
					}
				}
			}
		}
	}
}
MOTION
Frames:	8
Frame Time:	0.0333333
0.000000 0.000000 0.000000 0.000000 0.000000 -0.000000 -0.357556 83.465300 0.401285 88.369500 -8.314460 12.930600 15.735700 0.000005 -0.000001 79.390800 80.129900 -77.349400 8.984550 -0.406207 -0.000000 11.719700 -3.533810 4.445340 16.377300 -0.000001 -0.000001 -0.841161 -1.342700 3.179230 6.456720 -0.000001 -0.000000 -4.823980 4.257970 -2.334680 12.994200 -0.242716 4.980390 -91.681200 5.490540 -72.946000 5.348090 -0.000007 -0.000001 -60.638100 36.495900 -13.334300 24.328600 0.000019 0.000005 9.202380 15.354600 -31.460700 22.291600 -0.000001 0.000005 11.435700 5.259760 1.170770 12.994500 -0.242716 -4.980390 86.756400 12.396900 -75.212300 -5.348130 -0.000001 -0.000004 -64.495400 5.288620 0.262856 -24.328900 0.000322 -0.000009 -1.094910 -10.966700 -5.723770 -22.291500 -0.000108 -0.000004 10.389400 5.171990 3.427800 -2.192480 -6.469440 -0.000000 -172.105000 -13.368500 -9.485650 39.081100 -0.000007 -0.000012 -0.415914 0.256142 58.374000 40.985400 -0.000006 -0.000013 0.019570 3.138300 -85.131800 11.754300 -0.000000 0.000003 -0.000272 -0.002400 -16.667200 -2.192510 6.469440 -0.000001 177.254000 9.083000 169.245000 -39.081100 -0.002282 -0.040193 0.055533 -0.032055 58.507000 -40.985400 0.000008 0.000006 7.739540 7.243910 -84.350600 -11.754300 -0.000006 -0.000006 -0.420598 -0.519339 -17.536400
0.000000 0.000000 0.000000 0.000000 0.000000 -0.000000 -1.073210 84.990000 0.883203 88.074300 -5.611340 12.287000 15.735700 0.000005 -0.000001 77.507900 81.072200 -76.465100 8.984550 -0.406207 -0.000000 9.718630 -3.821480 2.409560 16.377300 -0.000001 -0.000001 0.248728 -1.370750 2.702240 6.456720 -0.000001 -0.000000 -3.647830 3.493420 -1.447510 12.994200 -0.242716 4.980390 -91.694400 5.356040 -72.415900 5.348090 -0.000007 -0.000001 -62.175500 33.559500 -11.519200 24.328600 0.000019 0.000005 8.447930 15.201000 -29.527200 22.291600 -0.000001 0.000005 12.388500 5.231660 1.912330 12.994500 -0.242716 -4.980390 86.939300 11.155500 -74.550200 -5.348130 -0.000001 -0.000004 -62.004700 -0.136275 -2.044390 -24.328900 0.000322 -0.000009 -0.803921 -10.438100 -4.422650 -22.291500 -0.000108 -0.000004 7.834930 5.153650 3.855920 -2.192480 -6.469440 -0.000000 -171.455000 -12.533700 -7.908880 39.081100 -0.000007 -0.000012 -0.364380 0.267304 53.737600 40.985400 -0.000006 -0.000013 0.303035 5.156670 -82.813300 11.754300 -0.000000 0.000003 -0.000231 -0.002093 -16.656200 -2.192510 6.469440 -0.000001 178.046000 10.191300 171.673000 -39.081100 -0.002282 -0.040193 0.057793 -0.040115 53.674900 -40.985400 0.000008 0.000006 7.207410 5.849090 -82.198800 -11.754300 -0.000006 -0.000006 -0.483615 -0.595304 -17.720000
0.000000 0.000000 0.000000 0.000000 0.000000 -0.000000 -1.520630 86.953500 1.177230 88.254500 -3.572880 10.601000 15.735700 0.000005 -0.000001 74.804900 82.509100 -75.009100 8.984550 -0.406207 -0.000000 6.696980 -3.912400 -0.178984 16.377300 -0.000001 -0.000001 2.226180 -1.521640 2.382080 6.456720 -0.000001 -0.000000 -2.308650 2.450790 -0.100641 12.994200 -0.242716 4.980390 -91.507200 4.556720 -71.675400 5.348090 -0.000007 -0.000001 -63.953200 31.143400 -9.015320 24.328600 0.000019 0.000005 6.830430 13.325000 -27.460600 22.291600 -0.000001 0.000005 11.532900 5.247640 1.495020 12.994500 -0.242716 -4.980390 87.254400 9.482350 -73.769000 -5.348130 -0.000001 -0.000004 -56.179800 -5.447470 -7.263920 -24.328900 0.000322 -0.000009 -1.336600 -12.797900 -6.004470 -22.291500 -0.000108 -0.000004 8.146550 5.190550 2.958000 -2.192480 -6.469440 -0.000000 -171.899000 -11.826200 -6.596820 39.081100 -0.000007 -0.000012 -0.279813 0.260023 47.100100 40.985400 -0.000006 -0.000013 0.186761 6.298940 -79.364400 11.754300 -0.000000 0.000003 -0.000165 -0.001575 -16.637300 -2.192510 6.469440 -0.000001 178.406000 11.103900 173.434000 -39.081100 -0.002282 -0.040193 0.052752 -0.045738 47.259500 -40.985400 0.000008 0.000006 6.784820 5.195260 -78.846400 -11.754300 -0.000006 -0.000006 -0.488995 -0.602407 -18.105800
0.000000 0.000000 0.000000 0.000000 0.000000 -0.000000 -1.647830 88.692900 1.327380 88.713800 -2.303920 8.699300 15.735700 0.000005 -0.000001 72.097400 84.029000 -73.457600 8.984550 -0.406207 -0.000000 3.562280 -3.616470 -2.605680 16.377300 -0.000001 -0.000001 4.626180 -1.449480 1.872570 6.456720 -0.000001 -0.000000 -1.137910 1.488970 1.065170 12.994200 -0.242716 4.980390 -91.298200 3.734420 -70.815000 5.348090 -0.000007 -0.000001 -64.955100 29.846500 -6.629410 24.328600 0.000019 0.000005 6.727830 13.790400 -26.330300 22.291600 -0.000001 0.000005 9.163930 5.252980 1.352800 12.994500 -0.242716 -4.980390 87.696800 7.822590 -73.537500 -5.348130 -0.000001 -0.000004 -47.846400 -12.828000 -14.803900 -24.328900 0.000322 -0.000009 -2.700620 -17.823700 -8.751570 -22.291500 -0.000108 -0.000004 9.136250 5.237970 1.751860 -2.192480 -6.469440 -0.000000 -172.980000 -11.053400 -5.393210 39.081100 -0.000007 -0.000012 -0.233872 0.275668 40.311200 40.985400 -0.000006 -0.000013 -0.163299 6.383600 -75.858400 11.754300 -0.000000 0.000003 -0.000104 -0.001064 -16.618300 -2.192510 6.469440 -0.000001 178.146000 12.362200 174.702000 -39.081100 -0.002282 -0.040193 0.043385 -0.046076 41.040000 -40.985400 0.000008 0.000006 6.584460 5.801760 -75.502700 -11.754300 -0.000006 -0.000006 -0.487235 -0.601079 -18.476400
0.000000 0.000000 0.000000 0.000000 0.000000 -0.000000 -1.527210 89.830500 1.442810 88.923800 -1.886260 7.520240 15.735700 0.000005 -0.000001 71.824800 85.076300 -73.881300 8.984550 -0.406207 -0.000000 1.542580 -2.958380 -4.070070 16.377300 -0.000001 -0.000001 6.050180 -1.133780 1.189530 6.456720 -0.000001 -0.000000 -0.372832 0.873505 1.223780 12.994200 -0.242716 4.980390 -91.283600 3.469870 -69.685300 5.348090 -0.000007 -0.000001 -64.960200 29.015300 -5.196590 24.328600 0.000019 0.000005 7.260080 15.406700 -25.619200 22.291600 -0.000001 0.000005 7.164350 5.254070 1.325220 12.994500 -0.242716 -4.980390 88.450900 5.721140 -74.826200 -5.348130 -0.000001 -0.000004 -38.698700 -23.107400 -22.712000 -24.328900 0.000322 -0.000009 -5.153540 -23.099500 -12.937500 -22.291500 -0.000108 -0.000004 10.419500 5.315010 -0.342774 -2.192480 -6.469440 -0.000000 -173.689000 -10.758600 -4.121390 39.081100 -0.000007 -0.000012 -0.212182 0.300117 35.260600 40.985400 -0.000006 -0.000013 -0.348875 6.128070 -73.343800 11.754300 -0.000000 0.000003 -0.000093 -0.000969 -16.614800 -2.192510 6.469440 -0.000001 177.664000 13.919800 176.050000 -39.081100 -0.002282 -0.040193 0.033902 -0.041771 36.237800 -40.985400 0.000008 0.000006 6.510810 7.503930 -73.223800 -11.754300 -0.000006 -0.000006 -0.426523 -0.531160 -18.583700
0.000000 0.000000 0.000000 0.000000 0.000000 -0.000000 -1.487270 90.391300 1.271330 88.809700 -1.405670 6.675930 15.735700 0.000005 -0.000001 74.464500 85.571500 -76.809500 8.984550 -0.406207 -0.000000 0.726955 -2.227390 -4.672630 16.377300 -0.000001 -0.000001 6.141650 -1.048610 0.290859 6.456720 -0.000001 -0.000000 -0.637740 0.314690 0.956079 12.994200 -0.242716 4.980390 -91.584900 4.080460 -68.752700 5.348090 -0.000007 -0.000001 -63.390800 28.373500 -5.168230 24.328600 0.000019 0.000005 7.480470 16.262900 -25.120500 22.291600 -0.000001 0.000005 6.752730 5.250280 1.425470 12.994500 -0.242716 -4.980390 89.464100 2.294720 -76.865500 -5.348130 -0.000001 -0.000004 -30.716000 -35.372700 -28.253700 -24.328900 0.000322 -0.000009 -10.278600 -27.177200 -21.644300 -22.291500 -0.000108 -0.000004 13.528500 5.442720 -4.312360 -2.192480 -6.469440 -0.000000 -173.804000 -10.823100 -3.957260 39.081100 -0.000007 -0.000012 -0.189463 0.294478 32.757000 40.985400 -0.000006 -0.000013 -0.313448 6.472690 -71.893400 11.754300 -0.000000 0.000003 -0.000092 -0.000960 -16.614400 -2.192510 6.469440 -0.000001 177.643000 15.407600 176.776000 -39.081100 -0.002282 -0.040193 0.028444 -0.038496 33.156100 -40.985400 0.000008 0.000006 6.596600 8.778400 -72.289600 -11.754300 -0.000006 -0.000006 -0.003486 -0.045985 -18.443400
0.000000 0.000000 0.000000 0.000000 0.000000 -0.000000 -1.632090 90.634400 0.976881 88.821100 -0.288254 6.483270 15.735700 0.000005 -0.000001 80.574000 85.534000 -83.292500 8.984550 -0.406207 -0.000000 1.020760 -1.302360 -5.421000 16.377300 -0.000001 -0.000001 5.711190 -1.918180 0.407422 6.456720 -0.000001 -0.000000 -1.619580 -0.250167 -0.166036 12.994200 -0.242716 4.980390 -91.973500 5.101680 -68.818700 5.348090 -0.000007 -0.000001 -60.101000 27.244500 -6.185790 24.328600 0.000019 0.000005 7.435830 16.299500 -24.939400 22.291600 -0.000001 0.000005 7.525470 5.237170 1.768530 12.994500 -0.242716 -4.980390 90.303000 -1.282100 -76.716900 -5.348130 -0.000001 -0.000004 -24.935600 -47.090000 -32.937700 -24.328900 0.000322 -0.000009 -16.658600 -25.545400 -34.765400 -22.291500 -0.000108 -0.000004 17.579400 5.560140 -9.122780 -2.192480 -6.469440 -0.000000 -173.588000 -11.447400 -3.999560 39.081100 -0.000007 -0.000012 -0.170372 0.275930 31.693400 40.985400 -0.000006 -0.000013 -0.003615 8.141600 -71.008800 11.754300 -0.000000 0.000003 -0.000083 -0.000881 -16.611500 -2.192510 6.469440 -0.000001 177.730000 16.319800 177.484000 -39.081100 -0.002282 -0.040193 0.027779 -0.040134 31.381500 -40.985400 0.000008 0.000006 6.702050 8.648100 -72.153700 -11.754300 -0.000006 -0.000006 -0.003466 -0.045768 -18.434600
0.000000 0.000000 0.000000 0.000000 0.000000 -0.000000 -1.987040 90.793200 0.587308 88.864800 1.614740 6.051580 15.735700 0.000005 -0.000001 82.291300 85.418100 -85.304700 8.984550 -0.406207 -0.000000 1.294630 -1.058660 -6.009710 16.377300 -0.000001 -0.000001 5.375950 -3.108700 1.833160 6.456720 -0.000001 -0.000000 -2.355470 -0.713177 -2.073140 12.994200 -0.242716 4.980390 -92.427900 6.233350 -68.669200 5.348090 -0.000007 -0.000001 -56.930200 25.350400 -7.448590 24.328600 0.000019 0.000005 7.969390 17.767600 -24.644700 22.291600 -0.000001 0.000005 9.729040 5.216440 2.298880 12.994500 -0.242716 -4.980390 91.276900 -4.657290 -74.660500 -5.348130 -0.000001 -0.000004 -18.660100 -54.680300 -37.005400 -24.328900 0.000322 -0.000009 -16.386600 -16.766400 -45.564300 -22.291500 -0.000108 -0.000004 24.065100 5.618410 -12.423000 -2.192480 -6.469440 -0.000000 -173.321000 -12.052800 -4.710630 39.081100 -0.000007 -0.000012 -0.151102 0.250944 31.053900 40.985400 -0.000006 -0.000013 0.364476 10.557400 -70.171300 11.754300 -0.000000 0.000003 -0.000093 -0.000965 -16.614700 -2.192510 6.469440 -0.000001 178.080000 17.471300 177.523000 -39.081100 -0.002282 -0.040193 0.029031 -0.044079 30.273100 -40.985400 0.000008 0.000006 6.786010 7.861810 -71.947600 -11.754300 -0.000006 -0.000006 -0.003389 -0.044923 -18.400200
